<svg version="1.1" xmlns="http://www.w3.org/2000/svg" xmlns:xlink="http://www.w3.org/1999/xlink" width="1332" height="1038" viewBox="0,0,1332,1038"><g fill="none" fill-rule="nonzero" stroke="none" stroke-width="none" stroke-linecap="round" stroke-linejoin="round" stroke-miterlimit="10" stroke-dasharray="" stroke-dashoffset="0" font-family="none" font-weight="none" font-size="none" text-anchor="none" style="mix-blend-mode: normal"><g><g><path d="M666.00009,374.66629l0,-72.36068" fill="none" stroke="#797979" stroke-width="4"/><path d="M672.00009,302.30561c0,-3.31371 -2.68629,-6 -6,-6c-3.31371,0 -6,2.68629 -6,6c0,3.31371 2.68629,6 6,6c3.31371,0 6,-2.68629 6,-6z" fill="#000000" stroke="none" stroke-width="1"/></g><g><path d="M541.00249,591.16826l-62.66619,36.18034" fill="none" stroke="#797979" stroke-width="4"/><path d="M484.3363,627.3486c0,-3.31371 -2.68629,-6 -6,-6c-3.31371,0 -6,2.68629 -6,6c0,3.31371 2.68629,6 6,6c3.31371,0 6,-2.68629 6,-6z" fill="#000000" stroke="none" stroke-width="1"/></g><g><path d="M790.99665,591.16731l62.66619,36.18034" fill="none" stroke="#797979" stroke-width="4"/><path d="M859.66283,627.34765c0,-3.31371 -2.68629,-6 -6,-6c-3.31371,0 -6,2.68629 -6,6c0,3.31371 2.68629,6 6,6c3.31371,0 6,-2.68629 6,-6z" fill="#000000" stroke="none" stroke-width="1"/></g><g fill-opacity="0.78431" fill="#eaeaea" stroke="#000000" stroke-width="5"><path d="M540.99945,591.16893l62.5,-108.25318l62.5,36.08439v72.16878z" data-paper-data="{&quot;type&quot;:&quot;pen&quot;}" id="mer-1 1 1 1"/><path d="M665.99945,374.66258l62.5,108.25318l-62.5,36.08439l-62.5,-36.08439z" data-paper-data="{&quot;type&quot;:&quot;pen&quot;}" id="mer-1 1 1 1"/><path d="M790.99945,591.16893h-125l0,-72.16878l62.5,-36.08439z" data-paper-data="{&quot;type&quot;:&quot;pen&quot;}" id="mer-1 1 1 1"/></g><g fill-opacity="0.78431" fill="#eaeaea" stroke="#000000" stroke-width="5"><path d="M665.99945,374.66258l-62.5,108.25318l-46.58475,-26.89572l7.95763,-67.57445z" data-paper-data="{&quot;type&quot;:&quot;pen&quot;}" id="mer-1 1 1"/><path d="M540.99945,591.16893l-38.62712,-94.47016l54.54237,-40.67873l46.58475,26.89572z" data-paper-data="{&quot;type&quot;:&quot;pen&quot;}" id="mer-1 1 1"/><path d="M463.7452,402.2286l101.12712,-13.78301l-7.95763,67.57445l-54.54237,40.67873z" data-paper-data="{&quot;type&quot;:&quot;pen&quot;}" id="mer-1 1 1"/></g><g fill-opacity="0.78431" fill="#eaeaea" stroke="#000000" stroke-width="5"><path d="M790.99945,591.16893l-62.5,80.68715l-62.5,-26.89572l0,-53.79144z" data-paper-data="{&quot;type&quot;:&quot;pen&quot;}" id="mer-1 1 1 1"/><path d="M665.99945,752.54324l-62.5,-80.68715l62.5,-26.89572l62.5,26.89572z" data-paper-data="{&quot;type&quot;:&quot;pen&quot;}" id="mer-1 1 1 1"/><path d="M540.99945,591.16893h125l0,53.79144l-62.5,26.89572z" data-paper-data="{&quot;type&quot;:&quot;pen&quot;}" id="mer-1 1 1 1"/></g><g fill-opacity="0.78431" fill="#eaeaea" stroke="#000000" stroke-width="5"><path d="M868.2537,402.2286l-38.62712,94.47016l-54.54237,-40.67873l-7.95763,-67.57445z" data-paper-data="{&quot;type&quot;:&quot;pen&quot;}" id="mer-1 1 1 1"/><path d="M790.99945,591.16893l-62.5,-108.25318l46.58475,-26.89572l54.54237,40.67873z" data-paper-data="{&quot;type&quot;:&quot;pen&quot;}" id="mer-1 1 1 1"/><path d="M665.99945,374.66258l101.12712,13.78301l7.95763,67.57445l-46.58475,26.89572z" data-paper-data="{&quot;type&quot;:&quot;pen&quot;}" id="mer-1 1 1 1"/></g><g fill-opacity="0.78431" fill="#eaeaea" stroke="#000000" stroke-width="5"><path d="M540.99945,591.16893l-38.62712,22.30138l-12.87571,-70.4139l12.87571,-46.35764z" data-paper-data="{&quot;type&quot;:&quot;pen&quot;}" id="mer-1 1 1"/><path d="M463.7452,635.77169l0,-116.77154l25.75142,24.05626l12.87571,70.4139z" data-paper-data="{&quot;type&quot;:&quot;pen&quot;}" id="mer-1 1 1"/><path d="M463.7452,402.2286l38.62712,94.47016l-12.87571,46.35764l-25.75142,-24.05626z" data-paper-data="{&quot;type&quot;:&quot;pen&quot;}" id="mer-1 1 1"/></g><g fill-opacity="0.78431" fill="#eaeaea" stroke="#000000" stroke-width="5"><path d="M665.99945,285.45706l0,44.60276l-67.41808,24.05626l-33.70904,-10.27325z" data-paper-data="{&quot;type&quot;:&quot;pen&quot;}" id="mer-1 1 1"/><path d="M665.99945,374.66258l-101.12712,13.78301l33.70904,-34.32951l67.41808,-24.05626z" data-paper-data="{&quot;type&quot;:&quot;pen&quot;}" id="mer-1 1 1"/><path d="M463.7452,402.2286l101.12712,-58.38577l33.70904,10.27325l-33.70904,34.32951z" data-paper-data="{&quot;type&quot;:&quot;pen&quot;}" id="mer-1 1 1"/></g><g fill-opacity="0.78431" fill="#eaeaea" stroke="#000000" stroke-width="5"><path d="M463.7452,635.77169l38.62712,-22.30138l54.54237,46.35764l7.95763,34.32951z" data-paper-data="{&quot;type&quot;:&quot;pen&quot;}" id="mer-1 1 1 1"/><path d="M540.99945,591.16893l62.5,80.68715l-46.58475,-12.02813l-54.54237,-46.35764z" data-paper-data="{&quot;type&quot;:&quot;pen&quot;}" id="mer-1 1 1 1"/><path d="M665.99945,752.54324l-101.12712,-58.38577l-7.95763,-34.32951l46.58475,12.02813z" data-paper-data="{&quot;type&quot;:&quot;pen&quot;}" id="mer-1 1 1 1"/></g><g fill-opacity="0.78431" fill="#eaeaea" stroke="#000000" stroke-width="5"><path d="M665.99945,374.66258l0,-44.60276l67.41808,24.05626l33.70904,34.32951z" data-paper-data="{&quot;type&quot;:&quot;pen&quot;}" id="mer-1 1 1 1"/><path d="M665.99945,285.45706l101.12712,58.38577l-33.70904,10.27325l-67.41808,-24.05626z" data-paper-data="{&quot;type&quot;:&quot;pen&quot;}" id="mer-1 1 1 1"/><path d="M868.2537,402.2286l-101.12712,-13.78301l-33.70904,-34.32951l33.70904,-10.27325z" data-paper-data="{&quot;type&quot;:&quot;pen&quot;}" id="mer-1 1 1 1"/></g><g fill-opacity="0.78431" fill="#eaeaea" stroke="#000000" stroke-width="5"><path d="M790.99945,591.16893l38.62712,22.30138l-54.54237,46.35764l-46.58475,12.02813z" data-paper-data="{&quot;type&quot;:&quot;pen&quot;}" id="mer-1 1 1"/><path d="M868.2537,635.77169l-101.12712,58.38577l7.95763,-34.32951l54.54237,-46.35764z" data-paper-data="{&quot;type&quot;:&quot;pen&quot;}" id="mer-1 1 1"/><path d="M665.99945,752.54324l62.5,-80.68715l46.58475,-12.02813l-7.95763,34.32951z" data-paper-data="{&quot;type&quot;:&quot;pen&quot;}" id="mer-1 1 1"/></g><g fill-opacity="0.78431" fill="#eaeaea" stroke="#000000" stroke-width="5"><path d="M868.2537,402.2286l0,116.77154l-25.75142,24.05626l-12.87571,-46.35764z" data-paper-data="{&quot;type&quot;:&quot;pen&quot;}" id="mer-1 1 1"/><path d="M868.2537,635.77169l-38.62712,-22.30138l12.87571,-70.4139l25.75142,-24.05626z" data-paper-data="{&quot;type&quot;:&quot;pen&quot;}" id="mer-1 1 1"/><path d="M790.99945,591.16893l38.62712,-94.47016l12.87571,46.35764l-12.87571,70.4139z" data-paper-data="{&quot;type&quot;:&quot;pen&quot;}" id="mer-1 1 1"/></g><g><path d="M665.99952,752.53791l0,117.08204" fill="none" stroke="#797979" stroke-width="4"/><path d="M671.99952,869.61995c0,-3.31371 -2.68629,-6 -6,-6c-3.31371,0 -6,2.68629 -6,6c0,3.31371 2.68629,6 6,6c3.31371,0 6,-2.68629 6,-6z" fill="#000000" stroke="none" stroke-width="1"/></g><g><path d="M868.24912,402.23133l101.39602,-58.54102" fill="none" stroke="#797979" stroke-width="4"/><path d="M975.64514,343.69031c0,-3.31371 -2.68629,-6 -6,-6c-3.31371,0 -6,2.68629 -6,6c0,3.31371 2.68629,6 6,6c3.31371,0 6,-2.68629 6,-6z" fill="#000000" stroke="none" stroke-width="1"/></g><g><path d="M463.75004,402.2314l-101.39602,-58.54102" fill="none" stroke="#797979" stroke-width="4"/><path d="M368.35402,343.69038c0,-3.31371 -2.68629,-6 -6,-6c-3.31371,0 -6,2.68629 -6,6c0,3.31371 2.68629,6 6,6c3.31371,0 6,-2.68629 6,-6z" fill="#000000" stroke="none" stroke-width="1"/></g><g><path d="M666.00039,285.46209l0,-117.08204" fill="none" stroke="#797979" stroke-width="4"/><path d="M672.00039,168.38005c0,-3.31371 -2.68629,-6 -6,-6c-3.31371,0 -6,2.68629 -6,6c0,3.31371 2.68629,6 6,6c3.31371,0 6,-2.68629 6,-6z" fill="#000000" stroke="none" stroke-width="1"/></g><g><path d="M868.24997,635.76954l101.39602,58.54102" fill="none" stroke="#797979" stroke-width="4"/><path d="M975.64599,694.31056c0,-3.31371 -2.68629,-6 -6,-6c-3.31371,0 -6,2.68629 -6,6c0,3.31371 2.68629,6 6,6c3.31371,0 6,-2.68629 6,-6z" fill="#000000" stroke="none" stroke-width="1"/></g><g><path d="M463.75003,635.76964l-101.39602,58.54102" fill="none" stroke="#797979" stroke-width="4"/><path d="M368.35401,694.31066c0,-3.31371 -2.68629,-6 -6,-6c-3.31371,0 -6,2.68629 -6,6c0,3.31371 2.68629,6 6,6c3.31371,0 6,-2.68629 6,-6z" fill="#000000" stroke="none" stroke-width="1"/></g><g fill-opacity="0.78431" fill="#eaeaea" stroke="#000000" stroke-width="5"><path d="M463.7452,635.77169l38.62712,-94.47016l-12.87571,-46.35764l-25.75142,24.05626z" data-paper-data="{&quot;type&quot;:&quot;pen&quot;}" id="mer-1 1 1"/><path d="M540.99945,446.83136l-38.62712,-22.30138l-12.87571,70.4139l12.87571,46.35764z" data-paper-data="{&quot;type&quot;:&quot;pen&quot;}" id="mer-1 1 1"/><path d="M463.7452,402.2286l0,116.77154l25.75142,-24.05626l12.87571,-70.4139z" data-paper-data="{&quot;type&quot;:&quot;pen&quot;}" id="mer-1 1 1"/></g><g fill-opacity="0.78431" fill="#eaeaea" stroke="#000000" stroke-width="5"><path d="M540.99945,446.83136l62.5,-80.68715l-46.58475,12.02813l-54.54237,46.35764z" data-paper-data="{&quot;type&quot;:&quot;pen&quot;}" id="mer-1 1 1"/><path d="M665.99945,285.45706l-101.12712,58.38577l-7.95763,34.32951l46.58475,-12.02813z" data-paper-data="{&quot;type&quot;:&quot;pen&quot;}" id="mer-1 1 1"/><path d="M463.7452,402.2286l38.62712,22.30138l54.54237,-46.35764l7.95763,-34.32951z" data-paper-data="{&quot;type&quot;:&quot;pen&quot;}" id="mer-1 1 1"/></g><g fill-opacity="0.78431" fill="#eaeaea" stroke="#000000" stroke-width="5"><path d="M665.99945,752.54324l0,-44.60276l-67.41808,-24.05626l-33.70904,10.27325z" data-paper-data="{&quot;type&quot;:&quot;pen&quot;}" id="mer-1 1 1 1"/><path d="M665.99945,663.33771l-101.12712,-13.78301l33.70904,34.32951l67.41808,24.05626z" data-paper-data="{&quot;type&quot;:&quot;pen&quot;}" id="mer-1 1 1 1"/><path d="M463.7452,635.77169l101.12712,58.38577l33.70904,-10.27325l-33.70904,-34.32951z" data-paper-data="{&quot;type&quot;:&quot;pen&quot;}" id="mer-1 1 1 1"/></g><g fill-opacity="0.78431" fill="#eaeaea" stroke="#000000" stroke-width="5"><path d="M790.99945,446.83136l38.62712,-22.30138l-54.54237,-46.35764l-46.58475,-12.02813z" data-paper-data="{&quot;type&quot;:&quot;pen&quot;}" id="mer-1 1 1 1"/><path d="M868.2537,402.2286l-101.12712,-58.38577l7.95763,34.32951l54.54237,46.35764z" data-paper-data="{&quot;type&quot;:&quot;pen&quot;}" id="mer-1 1 1 1"/><path d="M665.99945,285.45706l62.5,80.68715l46.58475,12.02813l-7.95763,-34.32951z" data-paper-data="{&quot;type&quot;:&quot;pen&quot;}" id="mer-1 1 1 1"/></g><g fill-opacity="0.78431" fill="#eaeaea" stroke="#000000" stroke-width="5"><path d="M665.99945,752.54324l101.12712,-58.38577l-33.70904,-10.27325l-67.41808,24.05626z" data-paper-data="{&quot;type&quot;:&quot;pen&quot;}" id="mer-1 1 1"/><path d="M868.2537,635.77169l-101.12712,13.78301l-33.70904,34.32951l33.70904,10.27325z" data-paper-data="{&quot;type&quot;:&quot;pen&quot;}" id="mer-1 1 1"/><path d="M665.99945,663.33771l0,44.60276l67.41808,-24.05626l33.70904,-34.32951z" data-paper-data="{&quot;type&quot;:&quot;pen&quot;}" id="mer-1 1 1"/></g><g fill-opacity="0.78431" fill="#eaeaea" stroke="#000000" stroke-width="5"><path d="M790.99945,446.83136l38.62712,94.47016l12.87571,-46.35764l-12.87571,-70.4139z" data-paper-data="{&quot;type&quot;:&quot;pen&quot;}" id="mer-1 1 1"/><path d="M868.2537,635.77169l0,-116.77154l-25.75142,-24.05626l-12.87571,46.35764z" data-paper-data="{&quot;type&quot;:&quot;pen&quot;}" id="mer-1 1 1"/><path d="M868.2537,402.2286l-38.62712,22.30138l12.87571,70.4139l25.75142,24.05626z" data-paper-data="{&quot;type&quot;:&quot;pen&quot;}" id="mer-1 1 1"/></g><g fill-opacity="0.78431" fill="#eaeaea" stroke="#000000" stroke-width="5"><path d="M540.99945,446.83136l-38.62712,94.47016l54.54237,40.67873l46.58475,-26.89572z" data-paper-data="{&quot;type&quot;:&quot;pen&quot;}" id="mer-1 1 1 1"/><path d="M463.7452,635.77169l101.12712,13.78301l-7.95763,-67.57445l-54.54237,-40.67873z" data-paper-data="{&quot;type&quot;:&quot;pen&quot;}" id="mer-1 1 1 1"/><path d="M665.99945,663.33771l-62.5,-108.25318l-46.58475,26.89572l7.95763,67.57445z" data-paper-data="{&quot;type&quot;:&quot;pen&quot;}" id="mer-1 1 1 1"/></g><g fill-opacity="0.78431" fill="#eaeaea" stroke="#000000" stroke-width="5"><path d="M665.99945,285.45706l-62.5,80.68715l62.5,26.89572l62.5,-26.89572z" data-paper-data="{&quot;type&quot;:&quot;pen&quot;}" id="mer-1 1 1 1"/><path d="M540.99945,446.83136h125l0,-53.79144l-62.5,-26.89572z" data-paper-data="{&quot;type&quot;:&quot;pen&quot;}" id="mer-1 1 1 1"/><path d="M790.99945,446.83136l-62.5,-80.68715l-62.5,26.89572l0,53.79144z" data-paper-data="{&quot;type&quot;:&quot;pen&quot;}" id="mer-1 1 1 1"/></g><g fill-opacity="0.78431" fill="#eaeaea" stroke="#000000" stroke-width="5"><path d="M665.99945,663.33771l101.12712,-13.78301l7.95763,-67.57445l-46.58475,-26.89572z" data-paper-data="{&quot;type&quot;:&quot;pen&quot;}" id="mer-1 1 1"/><path d="M868.2537,635.77169l-38.62712,-94.47016l-54.54237,40.67873l-7.95763,67.57445z" data-paper-data="{&quot;type&quot;:&quot;pen&quot;}" id="mer-1 1 1"/><path d="M790.99945,446.83136l-62.5,108.25318l46.58475,26.89572l54.54237,-40.67873z" data-paper-data="{&quot;type&quot;:&quot;pen&quot;}" id="mer-1 1 1"/></g><g fill-opacity="0.78431" fill="#eaeaea" stroke="#000000" stroke-width="5"><path d="M665.99945,663.33771l62.5,-108.25318l-62.5,-36.08439l-62.5,36.08439z" data-paper-data="{&quot;type&quot;:&quot;pen&quot;}" id="mer-1 1 1 1"/><path d="M790.99945,446.83136h-125v72.16878l62.5,36.08439z" data-paper-data="{&quot;type&quot;:&quot;pen&quot;}" id="mer-1 1 1 1"/><path d="M540.99945,446.83136l62.5,108.25318l62.5,-36.08439v-72.16878z" data-paper-data="{&quot;type&quot;:&quot;pen&quot;}" id="mer-1 1 1 1"/></g><g><path d="M665.99952,663.33444l0,72.36068" fill="none" stroke="#797979" stroke-width="4"/><path d="M671.99952,735.69512c0,-3.31371 -2.68629,-6 -6,-6c-3.31371,0 -6,2.68629 -6,6c0,3.31371 2.68629,6 6,6c3.31371,0 6,-2.68629 6,-6z" fill="#000000" stroke="none" stroke-width="1"/></g><g><path d="M790.99665,446.83307l62.66619,-36.18034" fill="none" stroke="#797979" stroke-width="4"/><path d="M859.66283,410.65273c0,-3.31371 -2.68629,-6 -6,-6c-3.31371,0 -6,2.68629 -6,6c0,3.31371 2.68629,6 6,6c3.31371,0 6,-2.68629 6,-6z" fill="#000000" stroke="none" stroke-width="1"/></g><g><path d="M541.00298,446.83283l-62.66619,-36.18034" fill="none" stroke="#797979" stroke-width="4"/><path d="M484.3368,410.65249c0,-3.31371 -2.68629,-6 -6,-6c-3.31371,0 -6,2.68629 -6,6c0,3.31371 2.68629,6 6,6c3.31371,0 6,-2.68629 6,-6z" fill="#000000" stroke="none" stroke-width="1"/></g></g></g></svg>